<svg width="159" height="147" viewBox="0 0 159 147" fill="none" xmlns="http://www.w3.org/2000/svg">
<path d="M87.9167 31.4167H54.25C52.0178 31.4167 49.877 32.3034 48.2985 33.8818C46.7201 35.4603 45.8333 37.6011 45.8333 39.8333V107.167C45.8333 109.399 46.7201 111.54 48.2985 113.118C49.877 114.697 52.0178 115.583 54.25 115.583H104.75C106.982 115.583 109.123 114.697 110.701 113.118C112.28 111.54 113.167 109.399 113.167 107.167V56.6667L87.9167 31.4167Z" stroke="black" stroke-width="2" stroke-linecap="round" stroke-linejoin="round"/>
<path d="M87.9167 31.4167V56.6667H113.167" stroke="black" stroke-width="2" stroke-linecap="round" stroke-linejoin="round"/>
<path d="M96.3333 77.7083H62.6667" stroke="black" stroke-width="2" stroke-linecap="round" stroke-linejoin="round"/>
<path d="M96.3333 94.5417H62.6667" stroke="black" stroke-width="2" stroke-linecap="round" stroke-linejoin="round"/>
<path d="M71.0833 60.875H66.875H62.6667" stroke="black" stroke-width="2" stroke-linecap="round" stroke-linejoin="round"/>
<rect x="84" y="99" width="39" height="19" rx="3" fill="#FF0000"/>
<path d="M92.2344 109.594V114H90.6719V102.555C91.8542 102.503 92.5677 102.477 92.8125 102.477C96.1354 102.477 97.7969 103.589 97.7969 105.812C97.7969 108.385 96.3281 109.672 93.3906 109.672C93.2135 109.672 92.8281 109.646 92.2344 109.594ZM92.2344 103.961V108.188C92.8958 108.24 93.2448 108.266 93.2812 108.266C95.2188 108.266 96.1875 107.503 96.1875 105.977C96.1875 104.581 95.1536 103.883 93.0859 103.883C92.8776 103.883 92.5938 103.909 92.2344 103.961ZM101.898 114H99.5938V102.555C101.062 102.503 102.003 102.477 102.414 102.477C104.013 102.477 105.279 102.964 106.211 103.938C107.143 104.906 107.609 106.198 107.609 107.812C107.609 111.938 105.706 114 101.898 114ZM101.156 103.961V112.516C101.505 112.568 101.938 112.594 102.453 112.594C103.547 112.594 104.406 112.185 105.031 111.367C105.656 110.544 105.969 109.404 105.969 107.945C105.969 105.237 104.753 103.883 102.32 103.883C102.174 103.883 101.786 103.909 101.156 103.961ZM110.969 103.961V107.141H114.992V108.469H110.969V114H109.406V102.555H116.477V103.961H110.969Z" fill="white"/>
</svg>
